<svg xmlns="http://www.w3.org/2000/svg" viewBox="0 0 246.74 61.33"><defs><style>.cls-1{fill:#5c63ff;}</style></defs><title>toolbox_full</title><g id="Calque_2" data-name="Calque 2"><g id="Calque_2-2" data-name="Calque 2"><path class="cls-1" d="M52,24.49V44.2L33.17,53.48a8.2,8.2,0,0,1-7.27,0L7,44.2,7,24.64l15.6,7.68a15.88,15.88,0,0,0,13.85,0l0,0,0,0L52,24.49m7-11.35L33.4,26a8.84,8.84,0,0,1-7.73,0L0,13.38,0,44.61A6.36,6.36,0,0,0,3.59,50.3l19.22,9.46a15.19,15.19,0,0,0,13.45,0L55.48,50.3A6.35,6.35,0,0,0,59,44.6V13.14Z"/><path class="cls-1" d="M29.56,0a9,9,0,0,0-4,.91L7.27,9.83l7.91,3.93L25.59,8.7a9.07,9.07,0,0,1,7.92,0l10.14,4.93,7.8-4L33.51.91A9,9,0,0,0,29.56,0Z"/><path class="cls-1" d="M77,13.71l7.33-1.18v7.63h8.82v6.11H84.37v9.11a7.26,7.26,0,0,0,.82,3.69q.81,1.38,3.27,1.38a13.83,13.83,0,0,0,2.44-.22,12.12,12.12,0,0,0,2.29-.62l1,5.72a20.51,20.51,0,0,1-3,.93,17.29,17.29,0,0,1-4,.4,12.94,12.94,0,0,1-5-.82,7.76,7.76,0,0,1-3.16-2.26,8.63,8.63,0,0,1-1.65-3.52A21,21,0,0,1,77,35.48Z"/><path class="cls-1" d="M120.91,33.06a16.85,16.85,0,0,1-.88,5.59A12.18,12.18,0,0,1,117.47,43a11.6,11.6,0,0,1-4,2.78,14.39,14.39,0,0,1-10.44,0A11.56,11.56,0,0,1,99,43a12.58,12.58,0,0,1-2.61-4.34,16.11,16.11,0,0,1-.94-5.59,15.24,15.24,0,0,1,1-5.56,12.64,12.64,0,0,1,2.65-4.28,11.81,11.81,0,0,1,4-2.76,13,13,0,0,1,5.1-1,13.1,13.1,0,0,1,5.15,1,11.6,11.6,0,0,1,4,2.76A12.56,12.56,0,0,1,120,27.5,15.9,15.9,0,0,1,120.91,33.06Zm-7.48,0a9.25,9.25,0,0,0-1.35-5.34,4.85,4.85,0,0,0-7.76,0,9.1,9.1,0,0,0-1.38,5.34,9.35,9.35,0,0,0,1.38,5.4,4.78,4.78,0,0,0,7.76,0A9.51,9.51,0,0,0,113.43,33.06Z"/><path class="cls-1" d="M149.33,33.06a16.85,16.85,0,0,1-.89,5.59A12,12,0,0,1,145.88,43a11.46,11.46,0,0,1-4,2.78,13.35,13.35,0,0,1-5.25,1,13.19,13.19,0,0,1-5.19-1,11.46,11.46,0,0,1-4-2.78,12.76,12.76,0,0,1-2.62-4.34,16.11,16.11,0,0,1-.93-5.59,15.45,15.45,0,0,1,1-5.56,12.66,12.66,0,0,1,2.66-4.28,11.72,11.72,0,0,1,4-2.76,12.91,12.91,0,0,1,5.09-1,13.06,13.06,0,0,1,5.15,1,11.42,11.42,0,0,1,4,2.76,12.4,12.4,0,0,1,2.61,4.28A15.67,15.67,0,0,1,149.33,33.06Zm-7.49,0a9.25,9.25,0,0,0-1.35-5.34,4.41,4.41,0,0,0-3.87-1.94,4.48,4.48,0,0,0-3.89,1.94,9.1,9.1,0,0,0-1.38,5.34,9.35,9.35,0,0,0,1.38,5.4,4.46,4.46,0,0,0,3.89,2,4.39,4.39,0,0,0,3.87-2A9.51,9.51,0,0,0,141.84,33.06Z"/><path class="cls-1" d="M163.86,46.56a18.85,18.85,0,0,1-5.2-.69,7.73,7.73,0,0,1-3.15-1.8,6,6,0,0,1-1.58-2.81,15.08,15.08,0,0,1-.42-3.71V9l7.34-1.18V36.07a9.43,9.43,0,0,0,.15,1.77,3,3,0,0,0,.57,1.33,3,3,0,0,0,1.2.89,6.49,6.49,0,0,0,2.12.44Z"/><path class="cls-1" d="M191.68,33.11a16.36,16.36,0,0,1-.91,5.62A11.89,11.89,0,0,1,188.13,43a11.64,11.64,0,0,1-4.23,2.74,15.94,15.94,0,0,1-5.71,1c-.89,0-1.82-.05-2.79-.13s-1.92-.19-2.85-.32-1.83-.28-2.69-.47-1.6-.37-2.26-.56V9l7.34-1.18v12.9a13.2,13.2,0,0,1,2.56-.83,12.91,12.91,0,0,1,2.85-.3,11.71,11.71,0,0,1,4.88,1,9.53,9.53,0,0,1,3.54,2.73,12.25,12.25,0,0,1,2.17,4.26A19.54,19.54,0,0,1,191.68,33.11Zm-7.49-.19q0-7.09-5.22-7.09a8.56,8.56,0,0,0-2.24.29,6.39,6.39,0,0,0-1.79.74V40.21c.36.06.82.12,1.38.17s1.16.07,1.82.07a5.28,5.28,0,0,0,4.53-2.07A9,9,0,0,0,184.19,32.92Z"/><path class="cls-1" d="M220.09,33.06a16.85,16.85,0,0,1-.88,5.59A12.18,12.18,0,0,1,216.65,43a11.6,11.6,0,0,1-4,2.78,14.39,14.39,0,0,1-10.44,0,11.56,11.56,0,0,1-4-2.78,12.58,12.58,0,0,1-2.61-4.34,16.11,16.11,0,0,1-.94-5.59,15.45,15.45,0,0,1,1-5.56,12.66,12.66,0,0,1,2.66-4.28,11.81,11.81,0,0,1,4-2.76,13,13,0,0,1,5.1-1,13.1,13.1,0,0,1,5.15,1,11.6,11.6,0,0,1,4,2.76,12.71,12.71,0,0,1,2.61,4.28A15.9,15.9,0,0,1,220.09,33.06Zm-7.48,0a9.18,9.18,0,0,0-1.36-5.34,4.41,4.41,0,0,0-3.86-1.94,4.47,4.47,0,0,0-3.89,1.94,9.1,9.1,0,0,0-1.38,5.34,9.35,9.35,0,0,0,1.38,5.4,4.45,4.45,0,0,0,3.89,2,4.38,4.38,0,0,0,3.86-2A9.43,9.43,0,0,0,212.61,33.06Z"/><path class="cls-1" d="M233.66,27.42l5.15-7.26h7.58l-9,12.6a77.27,77.27,0,0,1,5.49,7.05,66.46,66.46,0,0,1,3.85,6.26h-7.87l-1-1.85c-.4-.74-.84-1.52-1.33-2.32a12.44,12.44,0,0,0-1.54-2c-.54-.55-1.07-1.06-1.59-1.52-.49.43-1,.9-1.51,1.41a9.93,9.93,0,0,0-1.46,1.93c-.46.77-.92,1.53-1.36,2.28s-.84,1.46-1.19,2.12h-7.46c.41-.81,1-1.78,1.63-2.9s1.42-2.29,2.23-3.49,1.68-2.35,2.62-3.48S228.78,34,229.69,33L225,26.42l-4.4-6.26h7.92Z"/></g></g></svg>